<svg width="4900" height="1400" viewBox="0 0 4900 1400" fill="none" xmlns="http://www.w3.org/2000/svg">
<g clip-path="url(#clip0_74_15)">
<rect width="4898.96" height="1399.7" fill="white"/>
<path fill-rule="evenodd" clip-rule="evenodd" d="M1546.54 -269.369C1415.61 -226.167 1264.33 -176.247 1104.2 -47.2962C970.264 60.5598 925.266 213.878 913.689 274.659C902.111 335.44 900.025 427.24 909.134 493.282C916.043 543.373 956.958 802.998 1027.55 951.024C1015.73 951.615 1004.49 952.078 993.697 952.523C921.323 955.504 869.123 957.654 797.545 992.016C726.298 1026.22 643.304 1079.03 640.41 1119.55C639.947 1126.03 639.209 1132.93 638.439 1140.13C634.395 1177.93 629.454 1224.12 658.629 1263.02C693.361 1309.33 841.79 1399.94 1093.6 1452.03C1345.4 1504.13 2050.64 1550.37 2325.61 1530.11C2600.57 1509.85 2851.58 1461.05 3065.76 1397.38C3279.94 1333.7 3541.72 1162.81 3616.87 1001.12C3692.36 838.698 3646.08 708.025 3589.77 617.865C3596.86 643.842 3603.82 672.846 3603.82 689.74C3603.82 718.526 3598.55 748.191 3592.83 780.345C3592.31 783.291 3591.78 786.257 3591.25 789.246C3584.97 824.859 3499.08 946.361 3449.85 991.4C3400.62 1036.44 3149.24 1168.42 3080.11 1192.51C3010.98 1216.6 2831.86 1245.93 2697.79 1265.83C2606.1 1272.43 2418.66 1284.55 2402.46 1280.23C2386.26 1275.91 2414.53 1261.15 2430.7 1254.31C2459.18 1251.79 2509.76 1249.28 2581.92 1245.7C2599.99 1244.8 2619.42 1243.83 2640.18 1242.78C2743.88 1237.55 2939.75 1186.22 3050.78 1154.8C3161.81 1123.38 3330.44 1029.11 3442.52 935.887C3554.59 842.665 3569.26 721.163 3570.31 684.503C3570.94 662.223 3560.33 606.293 3551.07 563.094C3498.2 497.022 3414.48 425.522 3284.38 413.575C3197.19 405.569 3134.92 416.814 3100.85 426.195C3107.12 443.903 3116.63 479.416 3118.17 490.198C3119.87 502.116 3108.57 515.782 3101.47 519.329L3072.91 435.544C3071.43 436.166 3070.68 436.519 3070.68 436.519C3064.19 416.304 3056.92 393.313 3049.03 368.372C3009.75 244.132 2955.18 71.5176 2904.47 -47.2964C2856.24 -160.31 2737.26 -263.26 2633.07 -303.781C2623.94 -307.329 2614.49 -311.092 2604.66 -315.003C2502.21 -355.767 2359.17 -412.686 2129.78 -410.815C1957.88 -409.412 1767 -344.218 1628.99 -297.081C1613.49 -291.786 1598.65 -286.718 1584.58 -281.994C1572.11 -277.805 1559.42 -273.619 1546.54 -269.369ZM1035.51 1145.37C1002 1160.39 920.924 1188.11 864.782 1178.89C794.604 1167.37 777.845 1141.18 770.513 1125.47C763.181 1109.76 766.323 1066.82 788.319 1052.15C800.237 1044.21 796.473 1054.4 791.855 1066.91C787.949 1077.49 783.432 1089.73 787.272 1094.05C795.651 1103.48 857.45 1142.23 882.588 1141.18C888.126 1140.95 896.51 1140.87 906.554 1140.78L906.556 1140.78C942.106 1140.45 998.444 1139.92 1022.94 1131.76C1048.08 1123.38 1041.8 1137.34 1035.51 1145.37Z" fill="black"/>
<path d="M1078.59 947.795C1028.29 927.02 1004.42 911.756 993.876 904.183C1012.79 1002.49 1054.87 1144.58 1054.87 1144.58C1250.18 1175.62 2182.77 1255.82 2403.95 1255.82C2411.71 1255.82 2605.73 1205.37 2889 1064.38C3038.87 989.794 3097.25 928.571 3195.55 848.376C3164.74 739.93 3180.96 673.216 3098.54 528.89C3092.85 630.299 2495.28 903.798 2131.22 984.439C1645.77 1067.63 1141.46 973.764 1078.59 947.795Z" fill="#FF3E00"/>
</g>
<defs>
<clipPath id="clip0_74_15">
<rect width="4900" height="1400" fill="white"/>
</clipPath>
</defs>
</svg>
